HIERARCHY
ROOT hip
{
	OFFSET 0.000000 0.000000 0.000000 
	CHANNELS 6 Xposition Yposition Zposition Xrotation Zrotation Yrotation
	JOINT abdomen
	{
		OFFSET 0.000000 3.402643 0.000000 
		CHANNELS 3 Xrotation Zrotation Yrotation
		JOINT chest
		{
			OFFSET 0.000000 8.438565 -0.680529 
			CHANNELS 3 Xrotation Zrotation Yrotation
			JOINT neck
			{
				OFFSET 0.000000 10.207942 -0.272212 
				CHANNELS 3 Xrotation Zrotation Yrotation
				JOINT head
				{
					OFFSET 0.000000 3.130431 0.000000 
					CHANNELS 3 Xrotation Zrotation Yrotation
					End Site
					{
						OFFSET 0.000000 3.130435 0.000000 
					}
				}
			}
			JOINT lCollar
			{
				OFFSET 3.470700 6.669187 -0.816635 
				CHANNELS 3 Yrotation Zrotation Xrotation
				JOINT lShldr
				{
					OFFSET 3.198488 0.000000 0.000000 
					CHANNELS 3 Zrotation Yrotation Xrotation
					JOINT lForeArm
					{
						OFFSET 10.139888 0.000000 0.000000 
						CHANNELS 3 Yrotation Zrotation Xrotation
						JOINT lHand
						{
							OFFSET 8.370511 0.000000 0.000000 
							CHANNELS 3 Zrotation Yrotation Xrotation
							End Site
							{
								OFFSET 4.083176 0.000000 0.000000 
							}
						}
					}
				}
			}
			JOINT rCollar
			{
				OFFSET -3.470700 6.669187 -0.816635 
				CHANNELS 3 Yrotation Zrotation Xrotation
				JOINT rShldr
				{
					OFFSET -3.198488 0.000000 0.000000 
					CHANNELS 3 Zrotation Yrotation Xrotation
					JOINT rForeArm
					{
						OFFSET -10.139888 0.000000 0.000000 
						CHANNELS 3 Yrotation Zrotation Xrotation
						JOINT rHand
						{
							OFFSET -8.370511 0.000000 0.000000 
							CHANNELS 3 Zrotation Yrotation Xrotation
							End Site
							{
								OFFSET -4.083176 0.000000 0.000000 
							}
						}
					}
				}
			}
		}
	}
	JOINT lThigh
	{
		OFFSET 5.308129 -1.633274 1.361059 
		CHANNELS 3 Xrotation Zrotation Yrotation
		JOINT lShin
		{
			OFFSET -2.041588 -20.007561 0.000000 
			CHANNELS 3 Xrotation Zrotation Yrotation
			JOINT lFoot
			{
				OFFSET 0.000000 -19.190928 -1.224953 
				CHANNELS 3 Xrotation Yrotation Zrotation
				End Site
				{
					OFFSET 0.000000 -2.449906 4.627600 
				}
			}
		}
	}
	JOINT rThigh
	{
		OFFSET -5.308129 -1.633274 1.361059 
		CHANNELS 3 Xrotation Zrotation Yrotation
		JOINT rShin
		{
			OFFSET 2.041588 -20.007561 0.000000 
			CHANNELS 3 Xrotation Zrotation Yrotation
			JOINT rFoot
			{
				OFFSET 0.000000 -19.190928 -1.224953 
				CHANNELS 3 Xrotation Yrotation Zrotation
				End Site
				{
					OFFSET 0.000000 -2.449906 4.627600 
				}
			}
		}
	}
}
MOTION
Frames: 9
Frame Time: 0.016667
108.635788 40.107868 -45.413467 -8.629390 14.576700 -131.151001 -12.997400 4.836270 3.942610 12.329900 1.797730 1.761740 9.744120 0.605762 -5.925450 11.379200 5.166620 -2.553700 2.000000 -2.000000 0.000000 -83.815804 -1.288920 140.070007 54.443901 -0.294350 0.111280 0.044639 0.001449 -136.404007 -2.000000 2.000000 0.000000 69.596497 10.644600 145.119003 -67.168503 0.267899 0.126011 1.328040 -1.111390 -122.096001 -55.961357 -3.952293 -11.564280 42.356724 1.045109 3.648480 -0.488645 -14.663267 -1.572416 -28.101488 -0.486358 -10.090629 61.508701 -1.210586 -3.959128 -21.464096 -9.740968 -3.774763 
108.212265 40.158581 -45.582314 -8.425510 14.787200 -131.205994 -13.020100 4.962390 3.891760 12.329100 1.962030 1.728250 9.811210 0.692700 -5.885740 11.379600 5.195680 -2.530430 2.000000 -2.000000 0.000000 -84.176598 -1.230990 139.709000 54.463402 -0.294312 0.111307 0.044638 0.001367 -136.434006 -2.000000 2.000000 0.000000 69.665199 10.644200 145.334000 -67.022003 0.268221 0.125875 1.336290 -1.108950 -122.017998 -55.732742 -3.833282 -11.631831 42.895695 1.032895 3.674102 -1.379598 -14.881574 -1.841834 -28.271652 -0.671082 -9.875496 62.479588 -1.147885 -3.992190 -20.526226 -6.824673 -2.292665 
107.785500 40.226273 -45.745541 -8.336920 14.848500 -131.289993 -13.049500 4.900750 3.864520 12.280600 1.894140 1.716870 9.903230 0.542416 -5.827150 11.388000 5.089010 -2.494450 2.000000 -2.000000 0.000000 -84.147102 -1.289810 139.582001 54.297401 -0.294634 0.111076 0.044640 0.001558 -136.365005 -2.000000 2.000000 0.000000 69.909500 10.477800 145.518997 -66.973198 0.268328 0.125830 1.328640 -1.109560 -122.204002 -55.426003 -3.839250 -11.509113 43.404652 1.037947 3.697702 -1.981063 -14.988483 -2.061127 -28.848690 -1.158107 -10.158501 63.951962 -1.019737 -4.051328 -16.770700 -6.507380 -1.786039 
107.358826 40.293835 -45.908772 -8.248290 14.909800 -131.373001 -13.078900 4.839130 3.837330 12.241800 1.826320 1.705930 9.994680 0.383220 -5.761130 11.386400 4.972790 -2.461440 2.000000 -2.000000 0.000000 -84.127296 -1.358420 139.445999 54.121601 -0.294975 0.110831 0.044642 0.001722 -136.307007 -2.000000 2.000000 0.000000 70.153801 10.311400 145.695007 -66.914597 0.268456 0.125775 1.339020 -1.104910 -122.389999 -55.061401 -3.834749 -11.397967 43.757015 1.024755 3.700045 -2.502979 -15.088231 -2.239503 -29.476286 -1.661503 -10.436113 65.453659 -0.895075 -4.115413 -192.985718 -173.839905 -181.321045 
106.958351 40.370022 -46.076599 -8.298780 14.908000 -131.503006 -13.096900 4.788660 3.867780 12.212300 1.864830 1.718860 10.034200 0.816304 -5.971310 11.426800 5.059420 -2.543570 2.000000 -2.000000 0.000000 -84.117798 -1.348420 139.572998 54.043499 -0.295126 0.110721 0.044641 0.001585 -136.354996 -2.000000 2.000000 0.000000 70.446701 10.223700 145.645996 -66.895103 0.268499 0.125757 1.339770 -1.103280 -122.507004 -54.695015 -3.840626 -11.148893 44.001659 1.031227 3.713716 -3.056165 -15.291385 -2.453490 -30.748247 -2.520280 -10.542195 67.544151 -0.698349 -4.188126 -8.599584 -4.433379 -0.612455 
106.557861 40.446213 -46.244434 -8.339180 14.906500 -131.639999 -13.124300 4.731980 3.909920 12.182900 1.893670 1.723410 10.064700 1.239910 -6.183470 11.477000 5.145910 -2.615790 2.000000 -2.000000 0.000000 -84.108200 -1.348210 139.690002 53.965302 -0.295276 0.110612 0.044639 0.001449 -136.404007 -2.000000 2.000000 0.000000 70.739601 10.135900 145.597000 -66.865799 0.268564 0.125729 1.340700 -1.101920 -122.634003 -54.319897 -3.844883 -10.910051 44.256481 1.013784 3.717658 -3.607146 -15.470600 -2.663066 -31.959692 -3.350194 -10.632061 69.595863 -0.506775 -4.272048 -4.310678 -2.669888 -0.048537 
106.182991 40.520603 -46.419796 -8.220340 14.707600 -131.727997 -13.083200 4.772760 3.992060 12.114500 1.893340 1.760220 10.012200 1.582720 -6.195380 11.459700 5.310790 -2.625430 2.000000 -2.000000 0.000000 -83.952499 -1.464740 140.050995 53.750500 -0.295690 0.110310 0.044637 0.001121 -136.520996 -2.000000 2.000000 0.000000 70.856300 9.999720 145.302994 -66.934097 0.268414 0.125793 1.341050 -1.099620 -122.732002 -53.684887 -3.879223 -10.645450 44.482117 1.014959 3.739134 -4.254156 -15.238036 -2.837491 -33.347271 -4.156194 -11.031837 72.029457 -0.301235 -4.361818 -0.662923 -2.099295 0.079771 
105.808228 40.594994 -46.595268 -8.092090 14.518400 -131.815002 -13.051600 4.803900 4.075900 12.036300 1.892950 1.796700 9.970450 1.915230 -6.218660 11.452400 5.485230 -2.633010 2.000000 -2.000000 0.000000 -83.806602 -1.581250 140.423004 53.535599 -0.296103 0.110006 0.044635 0.000792 -136.639008 -2.000000 2.000000 0.000000 70.973000 9.863590 145.000000 -66.992699 0.268285 0.125848 1.341200 -1.097010 -122.820000 -53.059277 -3.906930 -10.372776 44.706909 1.018200 3.742357 -4.888964 -15.009627 -3.010795 -34.671360 -4.950435 -11.373021 74.336540 -0.070707 -4.443046 3.011208 -1.565891 0.156022 
105.449646 40.653294 -46.780178 -8.061040 14.219400 -131.845001 -13.005600 4.737580 3.954820 12.015900 2.057030 1.703070 10.187800 2.674280 -6.310970 11.613800 5.773340 -2.646960 2.000000 -2.000000 0.000000 -84.011299 -1.591440 140.188004 53.594200 -0.295991 0.110089 0.044638 0.001367 -136.434006 -2.000000 2.000000 0.000000 71.090698 9.843390 145.341995 -66.973198 0.268328 0.125830 1.341570 -1.097590 -122.839996 -52.392326 -3.871704 -9.558104 44.765026 1.021749 3.732053 -5.667929 -15.311832 -3.279487 -35.996017 -5.816116 -11.829878 76.280884 0.135768 -4.508447 3.865117 -2.009346 0.129113 
